<svg xmlns="http://www.w3.org/2000/svg" viewBox="0 0 640 520" role="img" aria-labelledby="t d"><title id="t">تونة سليمة</title><desc id="d">تصميم توضيحي لعبوة تونة سليمة</desc>
<defs><linearGradient id="c" x1="0" y1="0" x2="1" y2="1"><stop stop-color="#f8fbff"/><stop offset="1" stop-color="#c8ddf7"/></linearGradient><linearGradient id="b" x1="0" y1="0" x2="1" y2="1"><stop stop-color="#2d80f0"/><stop offset="1" stop-color="#0a2b67"/></linearGradient><filter id="s"><feDropShadow dx="0" dy="18" stdDeviation="18" flood-color="#082653" flood-opacity=".22"/></filter></defs>
<ellipse cx="320" cy="442" rx="175" ry="26" fill="#0b2b61" opacity=".12"/>
<path d="M137 191h366v197c0 51-41 92-92 92H229c-51 0-92-41-92-92z" fill="url(#c)" stroke="#a9c6e8" stroke-width="6" filter="url(#s)"/>
<ellipse cx="320" cy="191" rx="183" ry="63" fill="#e9f2fd" stroke="#a9c6e8" stroke-width="6"/>
<ellipse cx="320" cy="191" rx="151" ry="43" fill="#f8fbff" stroke="#c0d6ef" stroke-width="4"/>
<path d="M207 237h226v139H207z" fill="url(#b)"/>
<path d="M246 304c45-50 101-50 146 0-45 50-101 50-146 0z" fill="#fff"/><path d="M246 304l-38-31v62z" fill="#f4c85b"/><circle cx="369" cy="293" r="5" fill="#0a2b67"/>
<text x="320" y="265" text-anchor="middle" fill="#fff" font-size="32" font-family="Arial" font-weight="700">سليمة</text><text x="320" y="358" text-anchor="middle" fill="#f4c85b" font-size="27" font-family="Arial" font-weight="700">TUNA</text>
</svg>
